<svg width="20px" height="20px" viewBox="0 0 5 5" fill="none" xmlns="http://www.w3.org/2000/svg">
<path d="M2.23248 0.0398699C1.20314 0.155048 0.375195 1.00736 0.26331 2.04397C0.151425 3.12664 0.755604 4.09413 1.67306 4.4627C1.74019 4.48574 1.80732 4.43967 1.80732 4.34752V3.97895C1.80732 3.97895 1.71781 4.00199 1.60593 4.00199C1.29265 4.00199 1.15839 3.72556 1.13601 3.56431C1.11364 3.47217 1.06888 3.40306 1.00175 3.33396C0.93462 3.31092 0.912243 3.31092 0.912243 3.28789C0.912243 3.24182 0.979374 3.24182 1.00175 3.24182C1.13601 3.24182 1.2479 3.40306 1.29265 3.47217C1.40454 3.65646 1.5388 3.70253 1.60593 3.70253C1.69544 3.70253 1.76257 3.67949 1.80732 3.65646C1.8297 3.49521 1.89683 3.33396 2.03109 3.24182C1.51642 3.12664 1.13601 2.82717 1.13601 2.32039C1.13601 2.067 1.2479 1.81361 1.40454 1.62932C1.38216 1.58325 1.35978 1.46808 1.35978 1.30683C1.35978 1.21468 1.35978 1.07647 1.42691 0.938258C1.42691 0.938258 1.74019 0.938258 2.05347 1.23772C2.16535 1.19165 2.32199 1.16861 2.47863 1.16861C2.63527 1.16861 2.79191 1.19165 2.92617 1.23772C3.21707 0.938258 3.55273 0.938258 3.55273 0.938258C3.59748 1.07647 3.59748 1.21468 3.59748 1.30683C3.59748 1.49111 3.5751 1.58325 3.55273 1.62932C3.70936 1.81361 3.82125 2.04397 3.82125 2.32039C3.82125 2.82717 3.44084 3.12664 2.92617 3.24182C3.06043 3.35699 3.14994 3.56431 3.14994 3.77163V4.37056C3.14994 4.43967 3.21707 4.50877 3.30658 4.48574C4.13453 4.1402 4.71633 3.31092 4.71633 2.34343C4.71633 0.961293 3.5751 -0.121379 2.23248 0.0398699Z" fill="white"/>
</svg>
