<svg width="20px" height="18px" viewBox="0 0 13 13" fill="none" xmlns="http://www.w3.org/2000/svg">
<path d="M2.90991 13H0.214732V4.32057H2.90991V13ZM1.56087 3.13661C0.69904 3.13661 0 2.42276 0 1.56091C6.16861e-09 1.14693 0.164448 0.749905 0.457168 0.457179C0.749888 0.164452 1.1469 0 1.56087 0C1.97484 0 2.37185 0.164452 2.66457 0.457179C2.95729 0.749905 3.12174 1.14693 3.12174 1.56091C3.12174 2.42276 2.42241 3.13661 1.56087 3.13661ZM12.9971 13H10.3077V8.77491C10.3077 7.76796 10.2874 6.47664 8.90645 6.47664C7.50518 6.47664 7.29045 7.57064 7.29045 8.70236V13H4.59817V4.32057H7.18308V5.50452H7.2208C7.58062 4.82259 8.45958 4.10293 9.77089 4.10293C12.4986 4.10293 13 5.89917 13 8.23226V13H12.9971Z" fill="white"/>
</svg>
