<svg width="20px" height="20px" viewBox="0 0 5 5" fill="none" xmlns="http://www.w3.org/2000/svg">
<path d="M4.87236 0.552597C4.69303 0.642435 4.50039 0.702891 4.29819 0.730159C4.5047 0.590646 4.66304 0.36975 4.73763 0.106366C4.54461 0.235521 4.33061 0.329375 4.10274 0.380107C3.92041 0.160903 3.66069 0.0239258 3.37323 0.0239258C2.82117 0.0239258 2.37368 0.528922 2.37368 1.15145C2.37368 1.23981 2.38268 1.32605 2.39954 1.40828C1.56884 1.36135 0.832392 0.912372 0.339178 0.230025C0.253353 0.396595 0.204069 0.590223 0.204069 0.797168C0.204069 1.18823 0.380404 1.53342 0.648561 1.7355C0.484781 1.72958 0.330558 1.67885 0.195824 1.59451C0.195824 1.59937 0.195824 1.60381 0.195824 1.60867C0.195824 2.1551 0.540249 2.61084 0.997671 2.71421C0.913907 2.74 0.825458 2.75374 0.734199 2.75374C0.669924 2.75374 0.607148 2.74655 0.546245 2.73365C0.673484 3.18158 1.04264 3.50774 1.48002 3.51683C1.13803 3.81932 0.707027 3.99963 0.238549 3.99963C0.157971 3.99963 0.0783295 3.99435 0 3.98378C0.442431 4.3036 0.967688 4.49025 1.5323 4.49025C3.37098 4.49025 4.37615 2.77213 4.37615 1.28208C4.37615 1.23325 4.37521 1.18463 4.37334 1.13623C4.56879 0.977055 4.73837 0.778566 4.87236 0.552597Z" fill="white"/>
</svg>
