<svg width="20px" height="20px" viewBox="0 0 19 13" fill="none" xmlns="http://www.w3.org/2000/svg">
<path d="M18.603 2.03406C18.3845 1.23341 17.7406 0.602841 16.9232 0.388849C15.4415 0 9.5 0 9.5 0C9.5 0 3.55856 0 2.07682 0.388849C1.25936 0.602875 0.615539 1.23341 0.397023 2.03406C0 3.48529 0 6.51314 0 6.51314C0 6.51314 0 9.54098 0.397023 10.9922C0.615539 11.7929 1.25936 12.3972 2.07682 12.6112C3.55856 13 9.5 13 9.5 13C9.5 13 15.4414 13 16.9232 12.6112C17.7406 12.3972 18.3845 11.7929 18.603 10.9922C19 9.54098 19 6.51314 19 6.51314C19 6.51314 19 3.48529 18.603 2.03406ZM7.5568 9.2622V3.76408L12.5227 6.5132L7.5568 9.2622Z" fill="white"/>
</svg>
